<?xml version="1.0" encoding="UTF-8" standalone="no"?>
<svg
   width="100%"
   height="100%"
   viewBox="0 0 556 607"
   version="1.1"
   xml:space="preserve"
   style="fill-rule:evenodd;clip-rule:evenodd;stroke-linejoin:round;stroke-miterlimit:2;"
   id="svg3"
   sodipodi:docname="sxs_logo_notext-replicated.svg"
   inkscape:version="1.4.4 (dcaf3e7, 2026-05-05)"
   inkscape:export-filename="sxs_logo_notext-replicated.png"
   inkscape:export-xdpi="410.72818"
   inkscape:export-ydpi="410.72818"
   xmlns:inkscape="http://www.inkscape.org/namespaces/inkscape"
   xmlns:sodipodi="http://sodipodi.sourceforge.net/DTD/sodipodi-0.dtd"
   xmlns:xlink="http://www.w3.org/1999/xlink"
   xmlns="http://www.w3.org/2000/svg"
   xmlns:svg="http://www.w3.org/2000/svg"
   xmlns:serif="http://www.serif.com/"><defs
   id="defs3"><linearGradient
     id="linearGradient32"
     inkscape:collect="always"><stop
       style="stop-color:#60280a;stop-opacity:1;"
       offset="0"
       id="stop32" /><stop
       style="stop-color:#ffffff;stop-opacity:1;"
       offset="1"
       id="stop33" /></linearGradient><linearGradient
     id="linearGradient29"
     inkscape:collect="always"><stop
       style="stop-color:#fff1d9;stop-opacity:1;"
       offset="0"
       id="stop30" /><stop
       style="stop-color:#f4d2b1;stop-opacity:1;"
       offset="1"
       id="stop29" /></linearGradient><linearGradient
     id="linearGradient16"
     inkscape:collect="always"><stop
       style="stop-color:#60280a;stop-opacity:1;"
       offset="0"
       id="stop16" /><stop
       style="stop-color:#ffffff;stop-opacity:0.81;"
       offset="1"
       id="stop17" /></linearGradient><radialGradient
     inkscape:collect="always"
     xlink:href="#linearGradient16"
     id="radialGradient17"
     cx="277.52612"
     cy="301.41293"
     fx="277.52612"
     fy="301.41293"
     r="137.92711"
     gradientTransform="matrix(1,0,0,0.88883318,9.9856341e-4,40.853815)"
     gradientUnits="userSpaceOnUse" /><linearGradient
     inkscape:collect="always"
     xlink:href="#linearGradient29"
     id="linearGradient30"
     x1="278.49075"
     y1="108.72659"
     x2="278.49075"
     y2="174.27811"
     gradientUnits="userSpaceOnUse" /><radialGradient
     inkscape:collect="always"
     xlink:href="#linearGradient32"
     id="radialGradient33"
     cx="278.92981"
     cy="345.80316"
     fx="278.92981"
     fy="345.80316"
     r="135.09843"
     gradientTransform="matrix(1.2137796,0,0,0.48399813,-60.353496,101.91037)"
     gradientUnits="userSpaceOnUse" /></defs><sodipodi:namedview
   id="namedview3"
   pagecolor="#ffffff"
   bordercolor="#666666"
   borderopacity="1.0"
   inkscape:showpageshadow="2"
   inkscape:pageopacity="0.0"
   inkscape:pagecheckerboard="0"
   inkscape:deskcolor="#d1d1d1"
   showgrid="false"
   showguides="true"
   inkscape:zoom="1.8296784"
   inkscape:cx="269.44626"
   inkscape:cy="265.62045"
   inkscape:window-width="2560"
   inkscape:window-height="1387"
   inkscape:window-x="0"
   inkscape:window-y="25"
   inkscape:window-maximized="1"
   inkscape:current-layer="vector-logo-with-text"><sodipodi:guide
     position="278.44106,562.94"
     orientation="1,0"
     id="guide3"
     inkscape:locked="false" /><sodipodi:guide
     position="273.62626,557.85265"
     orientation="0,-1"
     id="guide4"
     inkscape:locked="false" /><sodipodi:guide
     position="265.14437,88.98921"
     orientation="0,-1"
     id="guide5"
     inkscape:locked="false" /><sodipodi:guide
     position="250.66007,323.26862"
     orientation="1,0"
     id="guide7"
     inkscape:locked="false" /><sodipodi:guide
     position="345.22469,356.82463"
     orientation="1,0"
     id="guide9"
     inkscape:locked="false" /><sodipodi:guide
     position="128.15626,378.47914"
     orientation="0,-1"
     id="guide11"
     inkscape:locked="false" /><sodipodi:guide
     position="132.66585,268.88561"
     orientation="0,-1"
     id="guide12"
     inkscape:locked="false" /><sodipodi:guide
     position="148.29211,298.77475"
     orientation="1,0"
     id="guide13"
     inkscape:locked="false" /><sodipodi:guide
     position="181.53722,293.84567"
     orientation="1,0"
     id="guide14"
     inkscape:locked="false" /><sodipodi:guide
     position="408.91888,351.12144"
     orientation="1,0"
     id="guide15"
     inkscape:locked="false" /><sodipodi:guide
     position="375.3251,316.73625"
     orientation="1,0"
     id="guide16"
     inkscape:locked="false" /></sodipodi:namedview>
    <g
   id="vector-logo-with-text"
   serif:id="vector logo with text">
        <g
   id="logo-graphics"
   serif:id="logo graphics"
   inkscape:export-filename="sxs_logo_notext-replicated.png"
   inkscape:export-xdpi="531.573"
   inkscape:export-ydpi="531.573">
            <g
   id="g3">
                <g
   id="red-X"
   serif:id="red X"
   sodipodi:insensitive="true">
                    <path
   id="Rectangle-2-copy"
   serif:id="Rectangle 2 copy"
   d="m 276.026,283.2 0.554,0.555 -52.325,52.325 -13.435,-13.435 39.945,-39.945 -39.445,-39.445 13.435,-13.435 52.325,52.325 z"
   style="display:inline;fill:#d53705" />
                    <path
   id="Rectangle-2-copy-2"
   serif:id="Rectangle 2 copy 2"
   d="m 305.735,282.6 39.945,39.945 -13.435,13.435 -52.325,-52.325 0.554,-0.555 -1.054,-1.055 52.325,-52.325 13.435,13.435 z"
   style="display:inline;fill:#d53705" />
                </g>
                
                <text
   x="372.47076"
   y="336.34164"
   style="fill-rule:evenodd;clip-rule:evenodd;stroke-linejoin:round;stroke-miterlimit:2;font-weight:700;font-size:130px;font-family:Steelfish-Bold, Steelfish, sans-serif;letter-spacing:0px;word-spacing:0px;display:inline;fill:#d53706;stroke-width:0.999996"
   id="text33"
   transform="scale(0.99860747,1.0013945)"
   inkscape:label="left S"><tspan
     style="font-style:normal;font-variant:normal;font-weight:normal;font-stretch:normal;font-size:130px;font-family:Steelfish;-inkscape-font-specification:Steelfish;letter-spacing:0px;word-spacing:0px;display:inline;stroke-width:0.999996"
     id="tspan33"
     transform="translate(0,0.19940619)">S</tspan></text><text
   x="145.14001"
   y="336.44742"
   style="font-weight:700;font-size:130px;font-family:Steelfish-Bold, Steelfish, sans-serif;letter-spacing:0px;word-spacing:0px;clip-rule:evenodd;display:inline;fill:#d53706;fill-rule:evenodd;stroke-width:0.999996;stroke-linejoin:round;stroke-miterlimit:2"
   id="text16"
   transform="scale(0.99860745,1.0013945)"
   inkscape:label="right S"><tspan
     style="font-style:normal;font-variant:normal;font-weight:normal;font-stretch:normal;font-size:130px;font-family:Steelfish;-inkscape-font-specification:Steelfish;letter-spacing:0px;word-spacing:0px;display:inline;stroke-width:0.999996"
     id="tspan16"
     transform="translate(0,0.19940619)">S</tspan></text>
                <g
   id="cone">
                    <path
   id="Shape-5-copy-4"
   serif:id="Shape 5 copy 4"
   d="M 279,283 411.506,417.994 C 413.122,419.639 413,421 413,421 c 0,0 3.684,11.691 -29.961,20.646 C 363.424,446.868 332.12,452 279,452 c -52.506,0 -83.975,-4.898 -104,-10 -35.237,-8.977 -32,-20 -32,-20 0,0 -0.206,-2.264 1.262,-3.737 z m 0,-1 L 146.494,147.006 C 144.878,145.361 145,144 145,144 c 0,0 -3.684,-11.691 29.961,-20.647 C 194.576,118.132 225.88,113 279,113 c 52.506,0 83.975,4.898 104,10 35.237,8.977 32,20 32,20 0,0 0.206,2.263 -1.262,3.737 z"
   style="display:inline;fill:#d7d3c3" />
                    
                    <g
   id="g20"
   inkscape:label="cone-bottom"
   transform="translate(0,0.29987959)"><path
     id="path18"
     serif:id="cone bottom"
     d="m 278.50076,283 c 0,0 -116.93,117.386 -134.738,135.263 -1.468,1.473 -1.262,3.737 -1.262,3.737 0,0 -3.237,11.023 32,20 20.025,5.102 51.494,10 104,10 53.12,0 84.424,-5.132 104.039,-10.354 33.645,-8.955 29.961,-20.646 29.961,-20.646 0,0 0.122,-1.361 -1.494,-3.006 C 392.59976,399.241 278.50076,283 278.50076,283 Z"
     style="clip-rule:evenodd;display:inline;opacity:1;fill:#f59542;fill-opacity:0.81;fill-rule:evenodd;stroke:none;stroke-width:5.7;stroke-linejoin:round;stroke-miterlimit:2;stroke-dasharray:none;stroke-opacity:1"
     inkscape:label="cone-bottom-fill" /><path
     id="cone-bottom"
     serif:id="cone bottom"
     d="m 278.50076,283 c 0,0 -116.93,117.386 -134.738,135.263 -1.468,1.473 -1.262,3.737 -1.262,3.737 0,0 -3.237,11.023 32,20 20.025,5.102 51.494,10 104,10 53.12,0 84.424,-5.132 104.039,-10.354 33.645,-8.955 29.961,-20.646 29.961,-20.646 0,0 0.122,-1.361 -1.494,-3.006 C 392.59976,399.241 278.50076,283 278.50076,283 Z"
     style="display:inline;opacity:0.36;fill:url(#radialGradient17);stroke:none;stroke-width:5.7;stroke-dasharray:none;stroke-opacity:1"
     inkscape:label="cone-bottom-gradient" /><path
     id="path19"
     serif:id="cone bottom"
     d="m 278.50076,283 c 0,0 -116.93,117.386 -134.738,135.263 -1.468,1.473 -1.262,3.737 -1.262,3.737 0,0 -3.237,11.023 32,20 20.025,5.102 51.494,10 104,10 53.12,0 84.424,-5.132 104.039,-10.354 33.645,-8.955 29.961,-20.646 29.961,-20.646 0,0 0.122,-1.361 -1.494,-3.006 C 392.59976,399.241 278.50076,283 278.50076,283 Z"
     style="clip-rule:evenodd;display:inline;opacity:1;fill:#fa9645;fill-opacity:0.58;fill-rule:evenodd;stroke:none;stroke-width:5.7;stroke-linejoin:round;stroke-miterlimit:2;stroke-dasharray:none;stroke-opacity:1"
     inkscape:label="cone-bottom-color-overlay" /><path
     id="path20"
     serif:id="cone bottom"
     d="m 278.50076,283 c 0,0 -116.93,117.386 -134.738,135.263 -1.468,1.473 -1.262,3.737 -1.262,3.737 0,0 -3.237,11.023 32,20 20.025,5.102 51.494,10 104,10 53.12,0 84.424,-5.132 104.039,-10.354 33.645,-8.955 29.961,-20.646 29.961,-20.646 0,0 0.122,-1.361 -1.494,-3.006 C 392.59976,399.241 278.50076,283 278.50076,283 Z"
     style="clip-rule:evenodd;display:inline;opacity:1;fill:none;fill-opacity:0.58;fill-rule:evenodd;stroke:#957765;stroke-width:5.7;stroke-linejoin:round;stroke-miterlimit:2;stroke-dasharray:none;stroke-opacity:1"
     inkscape:label="cone-bottom-outline" /></g>
                    
                    <g
   id="g32"
   inkscape:label="cone-top"><path
     id="cone-top"
     serif:id="cone top"
     d="m 278.50047,282 c 0,0 116.93,-117.386 134.738,-135.263 1.468,-1.474 1.262,-3.737 1.262,-3.737 0,0 3.237,-11.023 -32,-20 -20.025,-5.102 -51.494,-10 -104,-10 -53.12,0 -84.424,5.132 -104.039,10.353 -33.645,8.956 -29.961,20.647 -29.961,20.647 0,0 -0.122,1.361 1.494,3.006 18.407,18.753 132.506,134.994 132.506,134.994 z"
     style="display:inline;fill:#f59542;fill-opacity:0.81;stroke:none"
     inkscape:label="cone-top-fill" /><path
     id="path30"
     serif:id="cone top"
     d="m 278.50047,282 c 0,0 116.93,-117.386 134.738,-135.263 1.468,-1.474 1.262,-3.737 1.262,-3.737 0,0 3.237,-11.023 -32,-20 -20.025,-5.102 -51.494,-10 -104,-10 -53.12,0 -84.424,5.132 -104.039,10.353 -33.645,8.956 -29.961,20.647 -29.961,20.647 0,0 -0.122,1.361 1.494,3.006 18.407,18.753 132.506,134.994 132.506,134.994 z"
     style="clip-rule:evenodd;display:inline;opacity:0.357;fill:url(#radialGradient33);fill-rule:evenodd;stroke:none;stroke-width:5.7;stroke-linejoin:round;stroke-miterlimit:2;stroke-dasharray:none;stroke-opacity:1"
     inkscape:label="cone-top-gradient" /><path
     id="path31"
     serif:id="cone top"
     d="m 278.50047,282 c 0,0 116.93,-117.386 134.738,-135.263 1.468,-1.474 1.262,-3.737 1.262,-3.737 0,0 3.237,-11.023 -32,-20 -20.025,-5.102 -51.494,-10 -104,-10 -53.12,0 -84.424,5.132 -104.039,10.353 -33.645,8.956 -29.961,20.647 -29.961,20.647 0,0 -0.122,1.361 1.494,3.006 18.407,18.753 132.506,134.994 132.506,134.994 z"
     style="clip-rule:evenodd;display:inline;fill:#fa9645;fill-opacity:0.56;fill-rule:evenodd;stroke:none;stroke-linejoin:round;stroke-miterlimit:2"
     inkscape:label="cone-top-color-overlay" /><path
     id="path32"
     serif:id="cone top"
     d="m 278.50047,282 c 0,0 116.93,-117.386 134.738,-135.263 1.468,-1.474 1.262,-3.737 1.262,-3.737 0,0 3.237,-11.023 -32,-20 -20.025,-5.102 -51.494,-10 -104,-10 -53.12,0 -84.424,5.132 -104.039,10.353 -33.645,8.956 -29.961,20.647 -29.961,20.647 0,0 -0.122,1.361 1.494,3.006 18.407,18.753 132.506,134.994 132.506,134.994 z"
     style="clip-rule:evenodd;display:inline;fill:none;fill-rule:evenodd;stroke:#957765;stroke-width:6;stroke-linejoin:round;stroke-miterlimit:2;stroke-dasharray:none;stroke-opacity:1"
     inkscape:label="cone-top-outline" /></g>
                    <path
   id="cone-bottom-face"
   serif:id="cone bottom face"
   d="M278,395C350.902,395 410,407.312 410,422.5C410,437.688 350.902,450 278,450C205.098,450 146,437.688 146,422.5C146,407.312 205.098,395 278,395Z"
   style="fill:rgb(149, 119, 101);fill-opacity:0.08" />
                    <path
   id="cone-top-face"
   serif:id="cone top face"
   d="m 278.56093,110.86462 c 75.83796,0 137.31732,13.6267 137.31732,30.43617 0,16.80945 -61.47936,30.43615 -137.31732,30.43615 -75.83796,0 -137.31732,-13.6267 -137.31732,-30.43615 0,-16.80947 61.47936,-30.43617 137.31732,-30.43617 z"
   style="fill:url(#linearGradient30);fill-opacity:1;stroke:#957765;stroke-width:4.9;stroke-dasharray:none;stroke-opacity:1"
   sodipodi:insensitive="true" />
                    
                </g>
            </g>
            <g
   id="arrow"
   sodipodi:insensitive="true">
                <path
   id="arrow-bottom"
   serif:id="arrow bottom"
   d="m 281,455 v 25 c 0.275,0.629 6.725,7.557 10,8 v 30 c -5.842,-1.059 -10.373,-5.282 -12.556,-12.955 C 276.456,512.626 271.65,517.294 266,518 v -30 c 3.402,-0.529 9.895,-7.764 10,-8 v -25 z"
   style="fill:#9f8371" />
                <rect
   id="arrow-middle"
   serif:id="arrow middle"
   x="276"
   y="174"
   width="5"
   height="275"
   style="fill:#b8611c;fill-opacity:0.23" />
                <path
   id="arrow-top"
   serif:id="arrow top"
   d="M 293.988,75.318801 C 289.859,74.858598 284.774,74.08257 281,71.057665 v 98.256775 h -5 V 71.057665 c -3.76,2.988811 -9.185,4.108738 -12.988,4.261136 6.554,-6.801776 12.276,-15.641878 15.486,-26.326801 3.073,10.684923 9.138,19.135006 15.49,26.326801 z"
   style="fill:#a08370;stroke-width:1" />
            </g>
        </g>
    </g>
</svg>
